<svg xmlns="http://www.w3.org/2000/svg" viewBox="0 0 500 500"><g id="freepik--background-simple--inject-3"><path d="M114.42,250.43c-2.35-29.83-60.21-78.76-39.85-103.6,25.3-30.86,121.48,12.95,164.51,4.52,46.14-9,126.41-93,167-73.47,48.18,23.24-17.62,135.67-10.87,182.55,3.79,26.35,50,84.76,29.13,105-33.1,32-134.76-20.1-184.42-16.55C201.35,351.64,111.87,402.18,85.16,379,57.52,355,117.07,284.16,114.42,250.43Z" style="fill:#B0BEC5"></path><path d="M114.42,250.43c-2.35-29.83-60.21-78.76-39.85-103.6,25.3-30.86,121.48,12.95,164.51,4.52,46.14-9,126.41-93,167-73.47,48.18,23.24-17.62,135.67-10.87,182.55,3.79,26.35,50,84.76,29.13,105-33.1,32-134.76-20.1-184.42-16.55C201.35,351.64,111.87,402.18,85.16,379,57.52,355,117.07,284.16,114.42,250.43Z" style="fill:#fff;opacity:0.9"></path></g><g id="freepik--Shadow--inject-3"><ellipse id="freepik--path--inject-3" cx="250" cy="416.24" rx="193.89" ry="11.32" style="fill:#f5f5f5"></ellipse></g><g id="freepik--Plant--inject-3"><path d="M401.9,382.21s-6.58-14.34.93-28.49,9.7-17.48,4.91-20.37-7,11.31-7,11.31-4-9.78-.71-20,5.43-26.9.88-28.69-.87,20.79-4.82,28.49a66.37,66.37,0,0,1-3.87-16.79c-.54-8.22.31-21.34-3.29-24.71s-5.89-1-2.36,17.1a190.39,190.39,0,0,1,3.51,32.89s-7.81-23.8-13-24.49-5.23,7-.74,13.69S389.43,340.8,390.84,347c0,0-8.56-17.9-16.27-12.42s6.71,16.31,13.13,20.22,10.89,28.4,10.89,28.4Z" style="fill:#B0BEC5"></path><path d="M401.9,382.21s-6.58-14.34.93-28.49,9.7-17.48,4.91-20.37-7,11.31-7,11.31-4-9.78-.71-20,5.43-26.9.88-28.69-.87,20.79-4.82,28.49a66.37,66.37,0,0,1-3.87-16.79c-.54-8.22.31-21.34-3.29-24.71s-5.89-1-2.36,17.1a190.39,190.39,0,0,1,3.51,32.89s-7.81-23.8-13-24.49-5.23,7-.74,13.69S389.43,340.8,390.84,347c0,0-8.56-17.9-16.27-12.42s6.71,16.31,13.13,20.22,10.89,28.4,10.89,28.4Z" style="opacity:0.2;isolation:isolate"></path><path d="M396.7,388.1s6.41-14.45-1.27-28.48-9.91-17.33-5.15-20.3,7.12,11.21,7.12,11.21,3.92-9.83.47-20-5.75-26.82-1.22-28.67,1.12,20.78,5.16,28.41a66,66,0,0,0,3.66-16.84c.45-8.23-.56-21.34,3-24.76s5.89-1.12,2.57,17.07a190.36,190.36,0,0,0-3.11,32.93s7.52-23.91,12.75-24.68,5.31,6.93.91,13.68-12.9,18.85-14.25,25c0,0,8.35-18,16.12-12.65s-6.51,16.4-12.88,20.4S400,389,400,389Z" style="fill:#B0BEC5"></path><polygon points="426.24 377.8 373.34 377.8 377.62 415.66 421.96 415.66 426.24 377.8" style="fill:#263238"></polygon></g><g id="freepik--speech-bubble--inject-3"><path d="M155.63,139.75H120.72a5.07,5.07,0,0,0-5.07,5.07v33.94a5.07,5.07,0,0,0,5.07,5.07h11.17l-7.52,10.22,13-10.22h18.25a5.07,5.07,0,0,0,5.07-5.07V144.82A5.07,5.07,0,0,0,155.63,139.75Z" style="fill:#B0BEC5"></path><path d="M155.63,139.75H120.72a5.07,5.07,0,0,0-5.07,5.07v33.94a5.07,5.07,0,0,0,5.07,5.07h11.17l-7.52,10.22,13-10.22h18.25a5.07,5.07,0,0,0,5.07-5.07V144.82A5.07,5.07,0,0,0,155.63,139.75Z" style="fill:#fff;opacity:0.6000000000000001;isolation:isolate"></path><circle cx="138.18" cy="161.79" r="15.85" style="fill:#B0BEC5;isolation:isolate"></circle><circle cx="138.18" cy="161.79" r="13.59" transform="translate(-51.03 259.1) rotate(-76.72)" style="opacity:0.2;isolation:isolate"></circle><path d="M136.49,168.28a1.4,1.4,0,0,1-1-.39l-5.77-5.65a1.39,1.39,0,0,1,1.94-2l4.73,4.63,8.18-9.13a1.39,1.39,0,0,1,2.07,1.85l-9.15,10.21a1.38,1.38,0,0,1-1,.46Z" style="fill:#fff"></path></g><g id="freepik--Character--inject-3"><path d="M92.9,392.92l28.81-2.84V357.59h11.42v32.48l28.93,2.85a5.6,5.6,0,0,1,5.06,5.58v4.33H87.84V398.5A5.6,5.6,0,0,1,92.9,392.92Z" style="fill:#263238"></path><path d="M92.9,392.92l28.81-2.84V357.59h11.42v32.48l28.93,2.85a5.6,5.6,0,0,1,5.06,5.58v4.33H87.84V398.5A5.6,5.6,0,0,1,92.9,392.92Z" style="fill:#fff;opacity:0.1;isolation:isolate"></path><circle cx="164.07" cy="408.19" r="7.47" style="fill:#263238"></circle><circle cx="90.89" cy="408.19" r="7.47" style="fill:#263238"></circle><path d="M123.88,330.23H131a4.13,4.13,0,0,1,4.13,4.13V366.3a0,0,0,0,1,0,0H119.75a0,0,0,0,1,0,0V334.36A4.13,4.13,0,0,1,123.88,330.23Z" transform="translate(254.84 696.52) rotate(180)" style="fill:#263238"></path><path d="M123.88,330.23H131a4.13,4.13,0,0,1,4.13,4.13V366.3a0,0,0,0,1,0,0H119.75a0,0,0,0,1,0,0V334.36A4.13,4.13,0,0,1,123.88,330.23Z" transform="translate(254.84 696.52) rotate(180)" style="fill:#fff;opacity:0.2;isolation:isolate"></path><path d="M87.54,267.62S96.1,321,113,330.23H95.82s-17-18.2-22.12-62.61Z" style="fill:#263238"></path><path d="M87.54,267.62S96.1,321,113,330.23H95.82s-17-18.2-22.12-62.61Z" style="fill:#fff;opacity:0.1;isolation:isolate"></path><path d="M95,322.68h66.92a5,5,0,0,1,5,5v6.69a0,0,0,0,1,0,0H90a0,0,0,0,1,0,0v-6.69A5,5,0,0,1,95,322.68Z" style="fill:#B0BEC5"></path><rect x="86.76" y="328.52" width="83.33" height="5.84" rx="2.01" style="fill:#263238"></rect><rect x="86.76" y="328.52" width="83.33" height="5.84" rx="2.01" style="fill:#fff;opacity:0.6000000000000001;isolation:isolate"></rect><path d="M71.67,278.48H99.16c8.06,0,13.29-6.46,11.69-14.43l-2.14-10.64c-1.6-8-9.43-14.42-17.48-14.42H63.74c-8.06,0-13.29,6.46-11.69,14.42l2.14,10.64C55.79,272,63.61,278.48,71.67,278.48Z" style="fill:#B0BEC5"></path><polygon points="217.54 367.89 211.24 370.36 206.71 361.82 202.59 354.05 209.57 349.87 213.79 359.4 217.54 367.89" style="fill:#e4897b"></polygon><polygon points="213.79 359.4 206.71 361.82 202.59 354.05 209.57 349.87 213.79 359.4" style="opacity:0.2;isolation:isolate"></polygon><path d="M212.48,354.74l-8.57,4.6s-32.39-56.95-37.37-56.47-52.23,30.58-66.64,19.46-.39-44.6-.39-44.6,29.81-8.52,33-2a49.75,49.75,0,0,1,2.14,6c.63,2.05,1.11,3.78,1.11,3.78h0c.91-.37,30.35-12.44,43.49-6C192.66,286.13,212.48,354.74,212.48,354.74Z" style="fill:#263238"></path><path d="M212.48,354.74l-8.57,4.6s-32.39-56.95-37.37-56.47-52.23,30.58-66.64,19.46-.39-44.6-.39-44.6,29.81-8.52,33-2a49.75,49.75,0,0,1,2.14,6c.63,2.05,1.11,3.78,1.11,3.78h0c.91-.37,30.35-12.44,43.49-6C192.66,286.13,212.48,354.74,212.48,354.74Z" style="fill:#fff;opacity:0.30000000000000004;isolation:isolate"></path><polygon points="165.92 401.18 159.2 400.41 159.16 390.93 159.15 382.23 167.28 381.85 166.56 392.08 165.92 401.18" style="fill:#e4897b"></polygon><polygon points="166.54 392.29 159.14 391.11 159.14 382.32 167.27 381.89 166.54 392.29" style="opacity:0.2;isolation:isolate"></polygon><polygon points="199.72 356.51 212.26 350.23 213.57 355.55 204.07 360.45 199.72 356.51" style="fill:#B0BEC5"></polygon><path d="M122.16,322.42s2.06-.23,33.75-6.1c0,0,.72,40.52,2.22,70.73l9.76.31s14-67,12.35-77.16-13.69-11.49-13.69-11.49S145.64,315,122.16,322.42Z" style="fill:#263238"></path><path d="M122.16,322.42s2.06-.23,33.75-6.1c0,0,.72,40.52,2.22,70.73l9.76.31s14-67,12.35-77.16-13.69-11.49-13.69-11.49S145.64,315,122.16,322.42Z" style="fill:#fff;opacity:0.4;isolation:isolate"></path><path d="M122.16,322.42s2.06-.23,33.75-6.1c0,0,.72,40.52,2.22,70.73l9.76.31s14-67,12.35-77.16-13.69-11.49-13.69-11.49S145.64,315,122.16,322.42Z" style="opacity:0.30000000000000004;isolation:isolate"></path><polygon points="156.34 384.35 169.65 384.04 167.83 389.52 157.03 389.62 156.34 384.35" style="fill:#B0BEC5"></polygon><path d="M135.8,285.53l-17.27,6.15s9.08-6.78,16.16-9.93C135.32,283.8,135.8,285.53,135.8,285.53Z" style="opacity:0.30000000000000004;isolation:isolate"></path><polygon points="97.51 275.67 98.15 280.46 130.52 273.59 129.77 267.93 97.51 275.67" style="fill:#263238"></polygon><polygon points="97.51 275.67 98.15 280.46 130.52 273.59 129.77 267.93 97.51 275.67" style="opacity:0.2;isolation:isolate"></polygon><rect x="107.36" y="272.27" width="1.64" height="8.35" transform="translate(-48.6 24.37) rotate(-10.51)" style="fill:#263238"></rect><rect x="115.81" y="270.83" width="7.24" height="5.49" transform="translate(-57.23 32.96) rotate(-12.7)" style="fill:#fff"></rect><rect x="127.05" y="267.42" width="1.64" height="8.35" transform="matrix(0.98, -0.18, 0.18, 0.98, -47.36, 27.86)" style="fill:#263238"></rect><rect x="107.36" y="272.27" width="1.64" height="8.35" transform="translate(-48.6 24.37) rotate(-10.51)" style="fill:#fff;opacity:0.30000000000000004;isolation:isolate"></rect><rect x="127.05" y="267.42" width="1.64" height="8.35" transform="matrix(0.98, -0.18, 0.18, 0.98, -47.36, 27.86)" style="fill:#fff;opacity:0.30000000000000004;isolation:isolate"></rect><path d="M230.06,379.07a8.92,8.92,0,0,0-3.25-.37h0s-4.07-1.7-9-9.79l-4.2.55a3.49,3.49,0,0,0-2.9,2.75,2,2,0,0,0,0,.6,23.58,23.58,0,0,0,.74,3,85,85,0,0,0,3.81,9.53l.68-.28L213.77,379c-.72-2.07,1.79-.32,3.12,1.68s3.22,3.94,7.71,2.24C229.82,380.88,231.89,379.8,230.06,379.07Z" style="fill:#263238"></path><path d="M216.76,366.76S223.5,377,226.81,378.7c0,0-3.71,3-8.66-1.82-6.39-6.19-7.46-4.07-7.46-4.07a19.41,19.41,0,0,1,.17-3.63C211.37,366.83,216.76,366.76,216.76,366.76Z" style="fill:#e4897b"></path><path d="M176,413.1A9.09,9.09,0,0,0,172.9,412h0s-3.55-2.61-6.4-11.63l-4.21-.46a3.46,3.46,0,0,0-3.47,2,1.9,1.9,0,0,0-.18.57,22.47,22.47,0,0,0,0,3.07,83.52,83.52,0,0,0,1.44,10.16l.73-.11-.65-6.42c-.21-2.18,1.82.12,2.64,2.38s2.19,4.59,6.95,4C175.31,414.81,177.57,414.25,176,413.1Z" style="fill:#263238"></path><path d="M166,398s4.12,11.55,6.93,14c0,0-4.31,2-8-3.82-4.75-7.53-6.28-5.72-6.28-5.72a19.32,19.32,0,0,1,1-3.48C160.71,396.78,166,398,166,398Z" style="fill:#e4897b"></path><path d="M90.46,194,82,195.7a2.8,2.8,0,0,1-2.42.59c-2.52-1-6.15-3.93-6.61-5-.68-1.51,0-5.94,1.78-6.74s7.91,6.6,7.91,6.6l9.09-2.05Z" style="fill:#e4897b"></path><path d="M117.14,222.12s-.77-27.41-3.94-28.58-27,2.1-27,2.1l-.58-6.26s27.73-4.27,33.1-1.74,7.14,43.38,6.16,51.25Z" style="fill:#B0BEC5"></path><path d="M117.14,222.12s-.77-27.41-3.94-28.58-27,2.1-27,2.1l-.58-6.26s27.73-4.27,33.1-1.74,7.14,43.38,6.16,51.25Z" style="fill:#fff;opacity:0.6000000000000001;isolation:isolate"></path><polygon points="86.61 196.24 84.95 189.36 87.33 188.5 88.84 196.45 86.61 196.24" style="fill:#B0BEC5"></polygon><polygon points="86.61 196.24 84.95 189.36 87.33 188.5 88.84 196.45 86.61 196.24" style="fill:#fff;opacity:0.7000000000000001;isolation:isolate"></polygon><path d="M117,218.7s-2.13,8.34-12.39,11S83,225.41,83,225.41l2.26,19.9,12.56,31.35,32.1-8.37S128,231.82,117,218.7Z" style="fill:#B0BEC5"></path><path d="M117,218.7s-2.13,8.34-12.39,11S83,225.41,83,225.41l2.26,19.9,12.56,31.35,32.1-8.37S128,231.82,117,218.7Z" style="fill:#fff;opacity:0.7000000000000001;isolation:isolate"></path><rect x="120.34" y="242.35" width="5.52" height="9.02" rx="0.79" transform="translate(314.77 445.26) rotate(162.49)" style="fill:#B0BEC5;opacity:0.6000000000000001;isolation:isolate"></rect><rect x="120.79" y="242.93" width="4.48" height="6.13" transform="translate(314.37 443.59) rotate(162.49)" style="opacity:0.2;isolation:isolate"></rect><rect x="121.23" y="240.38" width="0.99" height="3.61" transform="translate(-67.21 47.83) rotate(-17.51)" style="fill:#263238"></rect><path d="M95.18,187.55c-7.91,0-13.13,8.38-11.28,21.67s9.26,17.12,9.26,17.12l-.47-3.21a75.4,75.4,0,0,0,25.09,1.4s-3.82-10.84-2.58-21.91C115.2,202.62,117.71,187.53,95.18,187.55Z" style="fill:#263238"></path><path d="M110.89,227l3.23,12-5.68-4.33s5.53,12.64,7,20c0,0-4.78-12.53-8.9-19.4l-2.41,6.88-9.69-9.87S103,225.72,110.89,227Z" style="opacity:0.2;isolation:isolate"></path><path d="M106.17,230.87l-9.86.3c4.37-5.59-3.53-15.33-3.53-15.33l9.74,2.11c2.32,9.64,6.33,9.93,6.33,9.93Z" style="fill:#e4897b"></path><path d="M105.24,224.87A14.78,14.78,0,0,1,95.46,220a29.72,29.72,0,0,0-2.68-4.12l9.74,2.12A22.16,22.16,0,0,0,105.24,224.87Z" style="opacity:0.2;isolation:isolate"></path><path d="M102.51,191.62c8.49.71,10.85,5.48,10.74,14.29-.13,11-3.21,18.57-13.63,15.35C85.46,216.89,88.4,190.44,102.51,191.62Z" style="fill:#e4897b"></path><path d="M107.8,205a18.07,18.07,0,0,0,2.18,3.73,2.36,2.36,0,0,1-2.32.77Z" style="fill:#de5753"></path><path d="M102.05,203.58l1.84-.6S102.91,204.44,102.05,203.58Z" style="fill:#263238"></path><path d="M102.69,203.37a1.57,1.57,0,0,0-2,.54,2.41,2.41,0,0,1,2,0Z" style="fill:#263238"></path><path d="M99.27,199.32a.36.36,0,0,1-.25-.11.35.35,0,0,1,0-.51,4.78,4.78,0,0,1,4.13-1.08.36.36,0,1,1-.15.71,4.12,4.12,0,0,0-3.46.87A.35.35,0,0,1,99.27,199.32Z" style="fill:#263238"></path><path d="M112.59,199.47a.34.34,0,0,1-.22-.07,3.65,3.65,0,0,0-3-.92.36.36,0,0,1-.19-.7,4.32,4.32,0,0,1,3.65,1.05.37.37,0,0,1,.06.51A.36.36,0,0,1,112.59,199.47Z" style="fill:#263238"></path><path d="M92,205.16s4.55-6.64,4.4-12.08c0,0,17.41-5.48,16.82,11.68,0,0,2.9-15-11.67-16.59S85.29,208,92.3,215C92.3,215,89.21,209.32,92,205.16Z" style="fill:#263238"></path><path d="M93.27,207.07a3.74,3.74,0,0,0-3.73-3.74c-2.66.07-4.36,5.37,2.08,7.22C92.54,210.81,93.15,209.94,93.27,207.07Z" style="fill:#e4897b"></path><path d="M107.73,212a20.59,20.59,0,0,0-1.67,2.64c-.17-.06-.35-.11-.52-.18-2.35-.83-3.17-2-3.36-3a3.12,3.12,0,0,1,.11-1.52,3.25,3.25,0,0,1,.36-.8,11.58,11.58,0,0,0,4.28,2.58C107.41,211.9,107.73,212,107.73,212Z" style="fill:#263238"></path><path d="M106.93,211.7l-.51.77c-2.22-.79-3.67-1.64-4.13-2.55a3.25,3.25,0,0,1,.36-.8A11.58,11.58,0,0,0,106.93,211.7Z" style="fill:#fff"></path><path d="M105.54,214.46c-2.35-.83-3.17-2-3.36-3a7.92,7.92,0,0,1,2.43,1.43A3,3,0,0,1,105.54,214.46Z" style="fill:#de5753"></path><path d="M102.28,192.25S97.69,205.94,88.91,205s6.27-17.48,6.27-17.48,14.81-4.23,21.26,4-3.19,13.22-3.19,13.22S114.69,194,102.28,192.25Z" style="fill:#263238"></path><path d="M95.28,203.9a.28.28,0,0,1-.24-.16.26.26,0,0,1,.15-.33c7-2.67,6.84-12.06,6.84-12.16a.23.23,0,0,1,.24-.25.27.27,0,0,1,.26.24c0,.1.16,9.84-7.16,12.64Z" style="fill:#263238"></path><path d="M110.67,204.41l1.84-.59S111.52,205.27,110.67,204.41Z" style="fill:#263238"></path><path d="M111.31,204.2a1.56,1.56,0,0,0-2,.55,2.39,2.39,0,0,1,2-.06Z" style="fill:#263238"></path><polygon points="97.7 227.13 105.13 230.91 105.01 238.44 94.39 232.25 97.7 227.13" style="fill:#B0BEC5"></polygon><polygon points="106.26 225.71 106.7 230.28 111.55 235.41 110.89 226.97 106.26 225.71" style="fill:#B0BEC5"></polygon><path d="M71.93,174l-3.1-8a2.78,2.78,0,0,0-.81-2.35c-2.16-1.61-6.62-3.07-7.74-2.9-1.63.24-5,3.19-4.71,5.12s9.81,3.12,9.81,3.12l3.16,8.77Z" style="fill:#e4897b"></path><path d="M85.28,245.31s6-4.77,3.61-15.31l-6.45-29.16L71.36,170.72l-5.42,2.74s9.1,29.43,9.94,31.42c.43,1,2.14,16.27,4.47,26.5C82.49,240.8,85.28,245.31,85.28,245.31Z" style="fill:#B0BEC5"></path><path d="M85.28,245.31s6-4.77,3.61-15.31l-6.45-29.16L71.36,170.72l-5.42,2.74s9.1,29.43,9.94,31.42c.43,1,2.14,16.27,4.47,26.5C82.49,240.8,85.28,245.31,85.28,245.31Z" style="fill:#fff;opacity:0.6000000000000001;isolation:isolate"></path><polygon points="64.99 172.6 71.32 169.43 72.7 171.54 65.3 174.82 64.99 172.6" style="fill:#B0BEC5"></polygon><polygon points="64.99 172.6 71.32 169.43 72.7 171.54 65.3 174.82 64.99 172.6" style="fill:#fff;opacity:0.7000000000000001;isolation:isolate"></polygon><polygon points="97.7 227.13 105.13 230.91 105.01 238.44 94.39 232.25 97.7 227.13" style="fill:#fff;opacity:0.6000000000000001;isolation:isolate"></polygon><polygon points="106.26 225.71 106.7 230.28 111.55 235.41 110.89 226.97 106.26 225.71" style="fill:#fff;opacity:0.6000000000000001;isolation:isolate"></polygon></g><g id="freepik--Desk--inject-3"><rect x="287.3" y="211.41" width="29.96" height="23.28" style="fill:#fff"></rect><rect x="309.58" y="211.41" width="7.68" height="23.28" style="opacity:0.1;isolation:isolate"></rect><polygon points="285.58 255.25 319.45 255.25 319.45 213 308.54 213 285.58 223.99 285.58 255.25" style="fill:#B0BEC5"></polygon><rect x="308.54" y="213" width="10.91" height="42.25" style="opacity:0.2;isolation:isolate"></rect><rect x="289.07" y="232.32" width="15.86" height="7.6" style="fill:#fff;opacity:0.7000000000000001;isolation:isolate"></rect><rect x="289.07" y="242.46" width="15.86" height="1.09" style="fill:#fff;opacity:0.7000000000000001;isolation:isolate"></rect><rect x="309.58" y="245.65" width="8.81" height="6.45" style="fill:#fff;opacity:0.7000000000000001;isolation:isolate"></rect><rect x="274.57" y="210.14" width="29.96" height="24.55" style="fill:#fff"></rect><rect x="296.85" y="210.14" width="7.68" height="24.55" style="opacity:0.1;isolation:isolate"></rect><polygon points="272.85 255.25 306.72 255.25 306.72 213 295.81 213 272.85 223.99 272.85 255.25" style="fill:#B0BEC5"></polygon><rect x="295.81" y="213" width="10.91" height="42.25" style="opacity:0.2;isolation:isolate"></rect><rect x="276.34" y="232.32" width="15.86" height="7.6" style="fill:#fff;opacity:0.7000000000000001;isolation:isolate"></rect><rect x="276.34" y="242.46" width="15.86" height="1.09" style="fill:#fff;opacity:0.7000000000000001;isolation:isolate"></rect><rect x="296.85" y="245.65" width="8.81" height="6.45" style="fill:#fff;opacity:0.7000000000000001;isolation:isolate"></rect><polygon points="251.81 415.66 257.94 415.66 268.94 262.41 260.81 262.41 251.81 415.66" style="fill:#263238"></polygon><polygon points="251.81 415.66 257.94 415.66 268.4 270.02 268.94 262.66 260.81 262.66 260.38 270.02 251.81 415.66" style="fill:#fff;opacity:0.1;isolation:isolate"></polygon><polygon points="260.38 269.66 268.4 269.66 268.94 262.66 260.81 262.66 260.38 269.66" style="opacity:0.2;isolation:isolate"></polygon><polygon points="206.85 415.66 212.98 415.66 213.98 262.41 205.85 262.41 206.85 415.66" style="fill:#263238"></polygon><polygon points="205.84 262.66 206.01 287.38 206.84 415.66 212.97 415.66 213.81 287.38 213.97 262.66 205.84 262.66" style="fill:#fff;opacity:0.1;isolation:isolate"></polygon><polygon points="205.84 262.66 206.01 287.66 213.81 287.66 213.97 262.66 205.84 262.66" style="opacity:0.2;isolation:isolate"></polygon><polygon points="141.81 415.66 147.94 415.66 158.94 262.41 150.81 262.41 141.81 415.66" style="fill:#263238"></polygon><polygon points="141.81 415.66 147.94 415.66 158.41 270.02 158.94 262.66 150.81 262.66 150.38 270.02 141.81 415.66" style="fill:#fff;opacity:0.1;isolation:isolate"></polygon><polygon points="150.38 269.66 158.41 269.66 158.94 262.66 150.81 262.66 150.38 269.66" style="opacity:0.2;isolation:isolate"></polygon><polygon points="321.89 415.66 328.02 415.66 319.01 262.41 310.88 262.41 321.89 415.66" style="fill:#263238"></polygon><polygon points="310.88 262.66 311.43 270.02 321.89 415.66 328.01 415.66 319.45 270.02 319.01 262.66 310.88 262.66" style="fill:#fff;opacity:0.1;isolation:isolate"></polygon><polygon points="319.01 262.66 310.88 262.66 311.43 269.66 319.45 269.66 319.01 262.66" style="opacity:0.2;isolation:isolate"></polygon><path d="M146.53,258.57H323.29a2.16,2.16,0,0,1,2.16,2.16v5.51a0,0,0,0,1,0,0H144.37a0,0,0,0,1,0,0v-5.51A2.16,2.16,0,0,1,146.53,258.57Z" transform="translate(469.83 524.82) rotate(180)" style="fill:#B0BEC5"></path><path d="M146.53,258.57H323.29a2.16,2.16,0,0,1,2.16,2.16v5.51a0,0,0,0,1,0,0H144.37a0,0,0,0,1,0,0v-5.51A2.16,2.16,0,0,1,146.53,258.57Z" transform="translate(469.83 524.82) rotate(180)" style="fill:#fff;opacity:0.4;isolation:isolate"></path><rect x="144.37" y="258.57" width="181.08" height="3.84" transform="translate(469.83 520.98) rotate(180)" style="opacity:0.2;isolation:isolate"></rect><path d="M140.58,259.57H329.25a2.15,2.15,0,0,0,2.16-2.16h0a2.16,2.16,0,0,0-2.16-2.16H140.58a2.17,2.17,0,0,0-2.17,2.16h0A2.16,2.16,0,0,0,140.58,259.57Z" style="fill:#B0BEC5"></path><path d="M140.58,259.57H329.25a2.15,2.15,0,0,0,2.16-2.16h0a2.16,2.16,0,0,0-2.16-2.16H140.58a2.17,2.17,0,0,0-2.17,2.16h0A2.16,2.16,0,0,0,140.58,259.57Z" style="fill:#fff;opacity:0.4;isolation:isolate"></path><polygon points="288.71 255.23 288.71 251.85 290.98 251.85 288.71 250.53 290.41 250.53 288.14 249.05 285.99 249.05 285.99 247.35 288.49 247.35 285.99 246.36 285.99 242.67 288.49 242.67 288.49 240.26 290.98 240.26 288.49 239.42 288.49 237.7 290.27 237.7 288.81 236.25 287.55 234.98 248.91 234.98 248.91 236.71 246.36 236.71 249.2 237.99 249.2 239.42 243.99 239.42 243.99 242.08 241.68 242.08 243.99 243.24 243.99 246.21 245.63 246.21 245.63 247.63 248.91 247.63 248.91 251.85 247.07 251.85 248.58 253.36 248.58 255.25 288.71 255.23" style="fill:#B0BEC5"></polygon><polygon points="288.71 255.23 288.71 251.85 290.98 251.85 288.71 250.53 290.41 250.53 288.14 249.05 285.99 249.05 285.99 247.35 288.49 247.35 285.99 246.36 285.99 242.67 288.49 242.67 288.49 240.26 290.98 240.26 288.49 239.42 288.49 237.7 290.27 237.7 288.81 236.25 287.55 234.98 248.91 234.98 248.91 236.71 246.36 236.71 249.2 237.99 249.2 239.42 243.99 239.42 243.99 242.08 241.68 242.08 243.99 243.24 243.99 246.21 245.63 246.21 245.63 247.63 248.91 247.63 248.91 251.85 247.07 251.85 248.58 253.36 248.58 255.25 288.71 255.23" style="fill:#fff;opacity:0.7000000000000001;isolation:isolate"></polygon><polygon points="288.71 255.23 288.71 251.85 290.98 251.85 288.71 250.53 290.41 250.53 288.14 249.05 285.99 249.05 285.99 247.35 288.49 247.35 285.99 246.36 285.99 242.67 288.49 242.67 288.49 240.26 290.98 240.26 288.49 239.42 288.49 237.7 290.27 237.7 288.81 236.25 287.55 234.98 267.2 234.98 267.2 236.71 264.65 236.71 267.48 237.99 267.48 239.42 262.27 239.42 262.27 242.08 259.96 242.08 262.27 243.24 262.27 246.21 263.91 246.21 263.91 247.63 267.2 247.63 267.2 251.85 265.36 251.85 266.86 253.36 266.86 255.25 288.71 255.23" style="opacity:0.1;isolation:isolate"></polygon><polygon points="249.2 239.42 267.48 239.42 249.2 238.76 249.2 239.42" style="opacity:0.1;isolation:isolate"></polygon><polygon points="248.91 247.63 267.2 247.63 267.28 248.91 248.91 247.63" style="opacity:0.1;isolation:isolate"></polygon><polygon points="245.63 246.21 263.91 246.21 245.63 246.85 245.63 246.21" style="opacity:0.1;isolation:isolate"></polygon><polygon points="248.91 251.85 267.2 251.85 248.91 251.18 248.91 251.85" style="opacity:0.1;isolation:isolate"></polygon><polygon points="248.58 253.36 266.86 253.36 266.86 254.06 248.58 253.36" style="opacity:0.1;isolation:isolate"></polygon><polygon points="243.99 242.08 262.27 242.08 243.99 241.5 243.99 242.08" style="opacity:0.1;isolation:isolate"></polygon><polygon points="248.91 236.71 267.2 236.71 248.91 236.07 248.91 236.71" style="opacity:0.1;isolation:isolate"></polygon><polygon points="288.49 237.7 269.94 237.7 288.49 238.27 288.49 237.7" style="opacity:0.1;isolation:isolate"></polygon><polygon points="267.48 239.42 288.49 239.42 269.44 240.04 267.48 239.42" style="opacity:0.1;isolation:isolate"></polygon><polygon points="262.27 242.08 288.49 242.67 288.49 242.08 262.27 242.08" style="opacity:0.1;isolation:isolate"></polygon><polygon points="262.27 243.24 275.24 243.24 262.27 243.87 262.27 243.24" style="opacity:0.1;isolation:isolate"></polygon><polygon points="285.99 246.36 267.2 246.21 285.99 245.79 285.99 246.36" style="opacity:0.1;isolation:isolate"></polygon><polygon points="285.99 247.35 266.86 247.35 285.99 247.99 285.99 247.35" style="opacity:0.1;isolation:isolate"></polygon><polygon points="288.71 250.53 267.48 250.53 267.48 251.18 288.71 250.53" style="opacity:0.1;isolation:isolate"></polygon><polygon points="288.71 251.85 273.33 251.85 288.71 252.28 288.71 251.85" style="opacity:0.1;isolation:isolate"></polygon><path d="M239.51,250.87v3.21c0,.82-1,1.16-1.79,1.16H173.6c-.82,0-1.81-.34-1.81-1.16v-3.21Z" style="fill:#263238"></path><path d="M239.51,250.87v3.21c0,.82-1,1.16-1.79,1.16H173.6c-.82,0-1.81-.34-1.81-1.16v-3.21Z" style="fill:#fff;opacity:0.4;isolation:isolate"></path><path d="M239.51,250.87v3.21c0,.82-1,1.16-1.79,1.16H195.43c-.82,0-1.8-.34-1.8-1.16v-3.21Z" style="opacity:0.2;isolation:isolate"></path><path d="M250.24,217.55l-7.64,34.63a2.59,2.59,0,0,1-2.48,2H198.43a1.68,1.68,0,0,1-1.57-2.17l7.62-34.36a2.39,2.39,0,0,1,2.48-1.7h41.7C249.78,215.91,250.48,216.42,250.24,217.55Z" style="fill:#263238"></path><path d="M250.24,217.55l-7.64,34.63a2.59,2.59,0,0,1-2.48,2H199.84a1.68,1.68,0,0,1-1.57-2.17l7.63-34.36a2.38,2.38,0,0,1,2.48-1.7h40.28C249.78,215.91,250.48,216.42,250.24,217.55Z" style="fill:#fff;opacity:0.4;isolation:isolate"></path><path d="M229.68,235.15h0c0,3-3.18,5.37-5.51,5.37s-3.71-2.41-3-5.37,3-5.27,5.26-5.36c-.66,3,.76,5.36,3.08,5.36Z" style="opacity:0.2;isolation:isolate"></path></g></svg>